<?xml version="1.0" encoding="utf-8"?>
<!-- Generator: Adobe Illustrator 26.5.0, SVG Export Plug-In . SVG Version: 6.00 Build 0)  -->
<svg version="1.1" id="Layer_1" xmlns="http://www.w3.org/2000/svg" xmlns:xlink="http://www.w3.org/1999/xlink" x="0px" y="0px"
	 viewBox="0 0 1000 1000" style="enable-background:new 0 0 1000 1000;" xml:space="preserve">
<g id="Layer_1_00000081648152569008293000000017533880408995066782_">
</g>
<g id="Layer_2_00000145040056989568648640000005327527286751519638_">
	<g>
		<g>
			<defs>
				<path id="SVGID_1_" d="M1731.91,905.66c-0.1-0.2-0.21-0.39-0.33-0.58l-20.43-32.88c-1.83-3.76-3.95-7.02-6.34-9.77
					c3.08-1.73,5.27-3.29,5.82-3.69c14.24-10.22,25.71-31.63,19.17-43.95c-5.89-11.1-19.75-7.4-25.43-5.3
					c-13.88,5.14-22.35,16.52-23.84,32.03c-0.34,3.57-0.28,6.99-0.04,9.99c-3.29,0.07-6.36,0.6-9.05,1.31
					c-2.22-12.98-8.74-34.82-27.76-44.94c-3.96-2.11-16.02-8.53-24.65-2.05c-2.54,1.91-5.63,5.66-5.95,12.73
					c-0.12,2.79,0.23,5.15,0.4,6.11c1.91,15.35,11.34,28.19,27.28,37.14c3.43,1.93,6.82,3.47,9.89,4.7
					c-9.06,7.92-15.32,11.77-20.62,11.27c-7.8-0.74-18.28-11.04-35.03-34.42c-35.12-49.03-67.93-65.14-71.15-66.64
					c-30.19-15.57-61.26-20.54-92.36-14.77c-25.6,4.75-51.32,16.81-76.43,35.83c-44.15,33.45-75.18,79.97-86.48,98.41
					c-8.09,13.22-16.72,25.53-25.65,36.58c-33.48,41.45-65.46,61.21-95.07,58.73c-36.76-3.08-58.3-40.47-58.63-41.06l-0.01-0.01
					c-2-3.58-6.52-4.86-10.1-2.86s-4.86,6.52-2.86,10.1c0,0,0,0.01,0.01,0.01c0,0,0,0,0,0.01s0.01,0.01,0.01,0.02
					c24.09,43.03,54.01,67.17,88.94,71.77c59.3,7.79,110.28-43.8,112.42-46c2.86-2.94,2.79-7.64-0.14-10.5
					c-2.94-2.86-7.64-2.8-10.5,0.13c-0.47,0.49-48.03,48.5-99.91,41.63c-9.76-1.29-19.12-4.45-28.04-9.46
					c2.42,0.46,4.9,0.8,7.45,1.02c34.86,2.99,71.19-18.61,107.99-64.19c9.33-11.55,18.33-24.39,26.76-38.16
					c10.85-17.73,40.65-62.41,82.78-94.33c51.44-38.97,102.96-45.58,153.15-19.63c0.11,0.05,0.23,0.12,0.34,0.17
					c10.85,4.96,38.48,24.28,65.4,61.85c17.63,24.61,30.76,39.14,45.7,40.56c0.83,0.08,1.66,0.12,2.48,0.12
					c12.66,0,23.68-9.34,38.47-23.36c2.12-1.09,9.47-4.41,16.41-2.29c4.82,1.47,8.84,5.5,11.93,11.96c0.12,0.25,0.25,0.48,0.39,0.72
					l20.38,32.81c0.53,1.27,0.92,3.36,0.4,4.16c-0.54,0.84-3.14,2.19-9.41,2.22c-6.73-2.22-36.91-10.76-59.83,6.12
					c-6.63,4.55-23.91,15.29-36.59,19.39c2.46-14.2,0.71-25.15-5.1-31.73c-2.92-3.31-8.3-7.14-17.42-6.6
					c-7.81,0.46-13.98,3.24-18.34,8.27c-5.09,5.88-7.21,14.33-6.29,25.12c0.51,6.05,3.21,11.21,7.79,14.94
					c5.48,4.45,12.88,6.28,20.24,6.76c-5.23,20.17-12.74,45.54-12.84,45.89c-0.05,0.16-0.09,0.32-0.12,0.47
					c-1.46,6.43-4.19,13.59-5.82,15.31c-0.45,0.25-0.87,0.55-1.26,0.89c-10.29,8.99-23.76,15.45-26.68,12.82
					c-1.03-0.93-2.08-1.86-3.13-2.78c-3.18-2.8-8.36-7.37-9.34-9.64c0.41-0.43,1.4-1.27,3.63-2.38
					c18.52-9.25,26.58-21.74,24.66-38.19c-0.12-1-0.27-2.86-0.47-5.22c-1.06-12.48-3.53-41.7-10.95-72.34
					c-9.44-38.93-23.65-67.22-42.24-84.09c-0.03-0.02-0.05-0.05-0.08-0.07c-0.54-0.48-13.5-11.79-32.95-18.5
					c-26.31-9.08-51.86-5.45-73.87,10.52c-14.03,10.17-24.88,24.13-31.39,40.37c-6.45,16.1-8.34,33.69-5.46,50.87
					c2.79,16.65,9.05,33.37,18.61,49.71c3.33,5.69,7.31,11.43,12.18,17.53c4.47,5.6,10.92,17.1,3.93,31.15
					c-13.12,26.36-29.71,51.33-39.5,59.47c-1.65,1.28-10.6,8.68-11.76,19.57c-0.67,6.28,1.43,12.44,6.07,17.82
					c11.9,13.79,67.8,83.04,68.36,83.73c1.29,1.59,3.17,2.59,5.22,2.74c0.19,0.01,0.38,0.02,0.56,0.02c1.85,0,3.63-0.69,5.01-1.94
					c0.86-0.79,8.52-8.08,12.1-21.52c5.87-22.07-3.96-43.18-13.24-57c-0.05-0.07-0.1-0.14-0.15-0.21l-19.92-27.58
					c-0.24-0.51-1.47-3.78,2.21-10.27c6-9.68,33.8-55.02,38.19-71.43c3.86,6.89,9.49,26.59-13.93,68.18
					c-1.92,2.97-6.67,13.25,6.44,28.56c10.94,12.78,56.44,71.93,56.9,72.53c1.32,1.71,3.31,2.76,5.46,2.89
					c2.15,0.12,4.25-0.69,5.76-2.24c1.01-1.04,9.86-10.65,10.68-28.63c1.04-22.9-11.22-48.02-36.44-74.66
					c-2.82-2.98-7.52-3.11-10.5-0.29s-3.11,7.52-0.29,10.5c35.84,37.86,34.66,62.74,30.38,74.64
					c-13.24-17.15-41.95-54.23-50.66-64.4c-5.23-6.11-5.55-9.83-5.2-10.89c0.1-0.15,0.2-0.31,0.29-0.46
					c12.36-21.89,18.9-41.33,19.43-57.8c0.54-16.61-5.19-25.93-8.66-30c-4.93-5.8-9.98-5.8-12.54-5.28
					c-7.27,1.46-10.29,9.33-11.04,11.7c-0.14,0.44-0.24,0.88-0.29,1.34c-0.86,6.98-19.31,40.07-36.66,68.03
					c-0.04,0.07-0.09,0.15-0.13,0.22c-8.67,15.14-2.7,24.68-1.55,26.28l19.97,27.65c17.27,25.79,12.91,43.58,8.15,52.52
					c-14.93-18.47-52.82-65.26-62.65-76.65c-2.57-2.98-2.69-5.13-2.55-6.49c0.42-4.21,4.57-8.27,6.1-9.45
					c0.09-0.06,0.17-0.13,0.25-0.2c13.28-10.94,31.83-41.05,43.45-64.39c11.06-22.23-0.24-40.3-5.62-47.04
					c-4.42-5.54-8.01-10.69-10.97-15.76c-8.64-14.78-14.29-29.81-16.78-44.67c-2.43-14.49-0.84-29.31,4.6-42.89
					c5.47-13.63,14.57-25.35,26.32-33.87c18.05-13.09,38.19-16,59.86-8.65c16.4,5.56,27.77,15.19,28.4,15.73
					c16.33,14.84,29.02,40.59,37.73,76.54c7.16,29.53,9.56,57.95,10.59,70.09c0.22,2.58,0.38,4.45,0.52,5.69
					c0.82,6.97-0.51,15.17-16.54,23.17c-7.15,3.57-11.14,8.17-11.86,13.66c-1.18,9.07,6.73,16.05,14.38,22.8
					c1,0.88,2,1.76,2.99,2.66c3.46,3.13,7.54,4.37,11.83,4.37c13.6,0,29.28-12.47,34.03-16.53c6.81-4.34,10.59-16.86,12.3-24.36
					c0.93-3.13,8.96-30.37,14.03-50.52c18.31-2.73,45.63-21.21,48.73-23.34c0.07-0.05,0.14-0.1,0.22-0.15
					c18.87-13.98,46.96-3.87,47.22-3.77c0.78,0.29,1.61,0.45,2.45,0.47c11.57,0.23,19.44-2.84,23.42-9.14
					C1736.95,916.23,1732.44,906.72,1731.91,905.66z M1695.37,842.56c1.04-9.74,5.67-16,14.17-19.15c3.27-1.21,5.28-1.46,6.38-1.46
					c0.41,0,0.7,0.03,0.88,0.07c1.11,3.47-3.97,16.88-14.85,24.66c-0.03,0.02-0.05,0.04-0.08,0.06c-1.07,0.79-3.62,2.45-6.54,3.89
					C1695.12,848.22,1695.06,845.44,1695.37,842.56z M1628.23,822.64c-0.03-0.22-0.05-0.38-0.1-0.6c-0.26-1.35-0.26-3.19-0.03-4.17
					c0.99,0.03,3.57,0.42,8.62,3.11c12.38,6.59,17.5,21.5,19.6,31.79C1645.65,848.56,1630.23,839.6,1628.23,822.64z
					 M1413.09,1078.27c0.02,0,0.13,0.14,0,0.01C1413.09,1078.27,1413.09,1078.27,1413.09,1078.27z M1413.16,1078.39
					c-0.04-0.05-0.06-0.08-0.07-0.1c0.04,0.04,0.1,0.12,0.17,0.24L1413.16,1078.39z M1598.48,942.71c-0.21,1.11-0.46,2.36-0.75,3.71
					c-6.54-0.09-11.68-1.32-14.44-3.56c-1.46-1.18-2.18-2.62-2.36-4.67c-0.56-6.55,0.39-11.44,2.72-14.14
					c1.65-1.91,4.27-2.95,7.98-3.17c0.29-0.02,0.57-0.03,0.83-0.03c3.14,0,4.17,1.17,4.58,1.63
					C1599.11,924.85,1600.58,931.39,1598.48,942.71z M1451.26,826.17c-0.03,0-0.06,0-0.08,0c-27.78,0.04-56.61,21.88-56.77,58.36
					c-0.18,39.74,49.88,82.11,52.01,83.89c1.38,1.15,3.07,1.73,4.77,1.73c1.67,0,3.35-0.56,4.72-1.69
					c2.05-1.68,50.11-41.71,50.53-83.82c0.17-17.27-5.25-31.96-15.68-42.48C1480.68,832,1466.29,826.17,1451.26,826.17z
					 M1451.2,952.77c-4.61-4.28-11.94-11.5-19.18-20.28c-14.95-18.13-22.82-34.7-22.76-47.9c0.08-16.89,7.7-27.13,14.09-32.76
					c7.68-6.76,18.08-10.8,27.84-10.81c0.02,0,0.04,0,0.06,0c11.09,0,21.64,4.22,28.95,11.59c7.68,7.75,11.51,18.47,11.38,31.87
					C1491.3,912.7,1462.72,942.07,1451.2,952.77z M1451.16,849.55c-16.28,0-29.53,13.25-29.53,29.53s13.25,29.53,29.53,29.53
					s29.53-13.25,29.53-29.53C1480.69,862.79,1467.45,849.55,1451.16,849.55z M1451.16,893.75c-8.09,0-14.68-6.58-14.68-14.68
					c0-8.09,6.58-14.68,14.68-14.68c8.09,0,14.68,6.58,14.68,14.68C1465.84,887.17,1459.25,893.75,1451.16,893.75z M1679.38,897.97
					c-4.38,0.15-8.05-3.29-8.2-7.67c-0.15-4.38,3.29-8.05,7.67-8.2s8.05,3.29,8.2,7.67C1687.2,894.15,1683.76,897.83,1679.38,897.97
					z"/>
			</defs>
			<clipPath id="SVGID_00000106832749407936539990000008771770002942236850_">
				<use xlink:href="#SVGID_1_"  style="overflow:visible;"/>
			</clipPath>
		</g>
	</g>
	<path d="M228.37,541.63L243.25,457c0.55-3.28,3-5.46,6.42-5.46h11.47c3.41,0,5.19,2.18,4.64,5.46l-14.88,84.63
		c-0.55,3.27-3,5.46-6.42,5.46h-11.47C229.6,547.09,227.82,544.91,228.37,541.63z M276.41,525.8l5.87-31.94h-7.1
		c-2.05,0-3.41-1.5-3-3.55l1.64-9.28c0.41-2.05,2.18-3.41,4.23-3.41h7.1l2.05-10.92c0.96-4.78,4.37-7.64,8.87-7.64h6.96
		c4.64,0,7.1,2.87,6.14,7.64l-2.05,10.92h11.06c2.05,0,3.41,1.5,3,3.55l-1.64,9.28c-0.41,2.05-2.18,3.41-4.23,3.41h-11.06
		l-5.73,31.39c-0.68,3.69,0.41,5.05,4.1,5.05h6.01c2.18,0,3.55,1.36,3.14,3.96l-1.5,8.6c-0.55,2.73-2.18,4.23-4.64,4.23h-9.56
		C279.42,547.09,273.82,539.99,276.41,525.8z M327.33,527.57l6.42-33.72h-6.82c-2.18,0-3.41-1.5-3-3.55l1.64-9.28
		c0.41-2.05,2.18-3.41,4.37-3.41h22.39c4.23,0,6.01,1.91,5.19,6.55l-8.05,42.86c-0.41,2.46,0.14,3.55,2.59,3.55h4.5
		c2.05,0,3.28,1.36,2.87,3.82l-1.36,7.78c-0.55,3.28-2.46,4.91-5.46,4.91h-8.05C330.33,547.09,324.87,540.54,327.33,527.57z
		 M336.88,463.97l1.09-6.14c0.82-4.37,3.28-6.55,7.78-6.55h9.83c4.37,0,6.69,2.46,6.01,6.69l-1.09,6.14
		c-0.82,4.37-3.28,6.55-7.78,6.55h-9.83C338.52,470.65,336.2,468.2,336.88,463.97z M370.32,542.04l7.92-45.18l-3.55-3.55
		c-3.14-3.14-3.28-6.83-0.27-9.83l4.91-4.91c3-3,6.96-2.73,9.96,0.27l6.96,6.96c5.19-6.41,12.83-9.83,21.98-9.83
		c17.61,0,27.44,10.78,24.3,28.53l-6.55,37.54c-0.55,3.14-2.87,5.05-5.87,5.05H418.1c-3,0-4.64-1.91-4.09-5.05l6.69-37.95
		c1.23-7.23-1.91-11.19-9.28-11.19c-6.96,0-11.19,3.96-12.42,11.19l-6.69,37.95c-0.55,3.14-2.73,5.05-5.87,5.05h-11.88
		C371.41,547.09,369.78,545.18,370.32,542.04z M453.31,521.16l3.28-18.43c3.14-17.74,15.83-26.75,36.58-26.75
		c21.29,0,31.8,10.37,28.8,27.84l-1.5,8.6c-0.68,4.23-3,6.28-7.1,6.28h-37.95l-0.96,5.6c-1.23,6.96,1.64,9.83,11.06,9.83
		c7.1,0,9.96-1.77,10.65-6.01l0.14-0.82c0.27-1.36,0.95-2.05,2.59-2.05h15.56c1.77,0,2.46,0.96,2.18,2.59l-0.27,1.64
		c-2.32,13.65-12.42,19.25-32.62,19.25C462.32,548.73,450.17,538.49,453.31,521.16z M478.7,500.82l-0.82,4.64h22.79l0.82-4.64
		c1.23-7.23-1.64-10.51-9.97-10.51C483.75,490.31,479.93,493.58,478.7,500.82z M531.11,541.63l14.33-81.35
		c0.95-5.32,4.91-8.74,10.24-8.74h30.44c22.52,0,33.72,10.1,30.44,28.39l-1.09,6.14c-2.59,14.47-9.69,21.84-24.02,24.3l13.1,21.43
		c3.41,5.73,1.5,12.29-4.37,15.29c-5.6,3-12.42,0.82-15.56-4.78l-15.7-27.44c-1.91-3.41-2.46-5.87-1.91-8.87l0.27-1.64
		c0.68-4.09,3.41-6.28,7.64-6.28h3.82c8.33,0,12.56-3.41,13.93-11.47l1.23-6.96c1.36-7.92-1.91-11.47-10.65-11.47H566.6
		l-12.97,73.44c-0.55,3.27-3.14,5.46-6.41,5.46h-11.6C532.34,547.09,530.56,544.91,531.11,541.63z M620.24,519.79l3-16.79
		c3.14-17.61,16.79-27.03,37.4-27.03c21.43,0,33.72,10.78,30.44,28.94l-3,16.79c-3.14,17.61-16.79,27.03-37.4,27.03
		C629.25,548.73,616.97,537.95,620.24,519.79z M665.83,521.84l3.41-18.97c1.37-7.24-1.77-10.92-10.37-10.92
		c-7.92,0-12.01,3.68-13.38,10.92l-3.41,18.97c-1.36,7.24,1.77,10.92,10.38,10.92C660.37,532.76,664.47,529.08,665.83,521.84z
		 M700.36,519.79l3-16.79c3.14-17.61,16.79-27.03,37.4-27.03c21.43,0,33.72,10.78,30.44,28.94l-3,16.79
		c-3.14,17.61-16.79,27.03-37.4,27.03C709.37,548.73,697.09,537.95,700.36,519.79z M745.95,521.84l3.41-18.97
		c1.37-7.24-1.77-10.92-10.37-10.92c-7.92,0-12.01,3.68-13.38,10.92l-3.41,18.97c-1.36,7.24,1.77,10.92,10.38,10.92
		C740.49,532.76,744.59,529.08,745.95,521.84z"/>
</g>
</svg>
