<?xml version="1.0" encoding="utf-8"?>
<!-- Generator: Adobe Illustrator 26.5.0, SVG Export Plug-In . SVG Version: 6.00 Build 0)  -->
<svg version="1.1" xmlns="http://www.w3.org/2000/svg" xmlns:xlink="http://www.w3.org/1999/xlink" x="0px" y="0px"
	 viewBox="0 0 1000 1000" style="enable-background:new 0 0 1000 1000;" xml:space="preserve">
<style type="text/css">
	.st0{fill-rule:evenodd;clip-rule:evenodd;}
	
		.st1{fill-rule:evenodd;clip-rule:evenodd;fill:none;stroke:#CC6600;stroke-width:20;stroke-linecap:round;stroke-linejoin:round;stroke-miterlimit:10;}
	.st2{fill:none;stroke:#CC6600;stroke-width:20;stroke-linecap:round;stroke-linejoin:round;stroke-miterlimit:10;}
	.st3{fill:none;stroke:#CC0000;stroke-width:20;stroke-linecap:round;stroke-linejoin:round;stroke-miterlimit:10;}
	.st4{fill:#CC6600;}
	.st5{fill:#FFFFFF;}
</style>
<g id="Layer_1">
</g>
<g id="Layer_2">
	<g>
		<path class="st5" d="M517.71,716.45c-0.19,0-0.38-0.01-0.56-0.02c-2.04-0.15-3.93-1.15-5.22-2.74
			c-0.56-0.7-56.46-69.95-68.36-83.73c-4.64-5.38-6.74-11.54-6.07-17.82c1.16-10.89,10.12-18.29,11.76-19.57
			c9.8-8.14,26.38-33.11,39.5-59.47c6.99-14.05,0.54-25.55-3.93-31.15c-4.87-6.1-8.85-11.84-12.18-17.53
			c-9.56-16.34-15.82-33.06-18.61-49.71c-2.88-17.18-0.99-34.77,5.46-50.87c6.51-16.24,17.36-30.2,31.39-40.37
			c22.02-15.96,47.56-19.6,73.87-10.52c19.45,6.71,32.41,18.02,32.95,18.5c0.03,0.02,0.05,0.05,0.08,0.07
			c18.59,16.87,32.81,45.16,42.24,84.09c7.43,30.64,9.9,59.86,10.95,72.34c0.2,2.35,0.36,4.21,0.47,5.22
			c1.93,16.45-6.14,28.94-24.66,38.19c-2.22,1.11-3.22,1.96-3.63,2.38c0.98,2.27,6.16,6.84,9.34,9.64c1.04,0.92,2.09,1.85,3.13,2.78
			c2.92,2.64,16.38-3.83,26.68-12.82c0.39-0.34,0.81-0.64,1.26-0.89c1.63-1.72,4.36-8.88,5.82-15.31c0.04-0.16,0.08-0.32,0.12-0.47
			c0.1-0.35,7.61-25.72,12.84-45.89c-7.36-0.48-14.76-2.31-20.24-6.76c-4.58-3.73-7.28-8.89-7.79-14.94
			c-0.92-10.79,1.2-19.24,6.29-25.12c4.35-5.03,10.52-7.81,18.34-8.27c9.12-0.54,14.5,3.29,17.42,6.6
			c5.81,6.58,7.56,17.54,5.1,31.73c12.68-4.1,29.96-14.85,36.59-19.39c22.93-16.88,53.11-8.34,59.83-6.12
			c6.27-0.02,8.87-1.38,9.41-2.22c0.52-0.8,0.13-2.89-0.4-4.16l-20.38-32.81c-0.14-0.23-0.27-0.47-0.39-0.72
			c-3.09-6.47-7.11-10.49-11.93-11.96c-6.95-2.12-14.29,1.2-16.41,2.29c-14.79,14.02-25.8,23.36-38.47,23.36
			c-0.82,0-1.64-0.04-2.48-0.12c-14.94-1.42-28.07-15.95-45.7-40.56c-26.92-37.58-54.55-56.89-65.4-61.85
			c-0.11-0.05-0.24-0.11-0.34-0.17c-50.19-25.94-101.72-19.34-153.15,19.63c-42.13,31.92-71.92,76.6-82.78,94.33
			c-8.43,13.77-17.43,26.61-26.76,38.16c-36.81,45.57-73.14,67.18-107.99,64.19c-2.55-0.22-5.03-0.56-7.45-1.02
			c8.93,5.01,18.28,8.17,28.04,9.46c51.87,6.87,99.43-41.14,99.91-41.63c2.86-2.93,7.57-2.99,10.5-0.13c2.94,2.86,3,7.56,0.14,10.5
			c-2.14,2.2-53.12,53.79-112.42,46c-34.93-4.59-64.86-28.74-88.94-71.77c0-0.01-0.01-0.01-0.01-0.02c0,0,0,0,0-0.01
			c0,0,0-0.01-0.01-0.01c-2-3.58-0.71-8.1,2.86-10.1c3.58-2,8.1-0.72,10.1,2.86c0,0,0.01,0.01,0.01,0.01
			c0.33,0.58,21.87,37.98,58.63,41.06c29.61,2.48,61.59-17.28,95.07-58.73c8.93-11.05,17.56-23.36,25.65-36.58
			c11.29-18.45,42.33-64.96,86.48-98.41c25.11-19.03,50.83-31.08,76.43-35.83c31.1-5.77,62.18-0.8,92.36,14.77
			c3.22,1.5,36.03,17.62,71.15,66.64c16.75,23.39,27.23,33.68,35.03,34.42c6.96,0.66,15.57-6.18,30.01-19.89
			c0.39-0.37,0.81-0.69,1.27-0.97c0.58-0.35,14.29-8.49,28.84-4.14c8.94,2.67,15.99,9.21,20.98,19.43l20.43,32.88
			c0.12,0.19,0.23,0.38,0.33,0.58c0.53,1.06,5.04,10.57-0.23,18.92c-3.98,6.31-11.84,9.37-23.42,9.14
			c-0.84-0.02-1.66-0.18-2.45-0.47c-0.27-0.1-28.35-10.21-47.22,3.77c-0.07,0.05-0.14,0.1-0.22,0.15
			c-3.1,2.13-30.42,20.61-48.73,23.34c-5.07,20.15-13.1,47.38-14.03,50.52c-1.71,7.5-5.49,20.02-12.3,24.36
			c-4.75,4.06-20.43,16.53-34.03,16.53c-4.29,0-8.36-1.24-11.83-4.37c-0.99-0.89-1.99-1.78-2.99-2.66
			c-7.65-6.75-15.57-13.73-14.38-22.8c0.72-5.5,4.71-10.09,11.86-13.66c16.03-8,17.35-16.2,16.54-23.17
			c-0.15-1.24-0.3-3.11-0.52-5.69c-1.03-12.14-3.43-40.56-10.59-70.09c-8.71-35.95-21.41-61.7-37.73-76.54
			c-0.63-0.54-12-10.17-28.4-15.73c-21.67-7.34-41.81-4.43-59.86,8.65c-11.76,8.53-20.86,20.24-26.32,33.87
			c-5.44,13.57-7.03,28.4-4.6,42.89c2.49,14.86,8.14,29.89,16.78,44.67c2.96,5.07,6.55,10.22,10.97,15.76
			c5.38,6.74,16.68,24.81,5.62,47.04c-11.62,23.34-30.17,53.45-43.45,64.39c-0.08,0.07-0.17,0.13-0.25,0.2
			c-1.53,1.18-5.68,5.24-6.1,9.45c-0.14,1.36-0.02,3.51,2.55,6.49c9.83,11.39,47.72,58.18,62.65,76.65
			c4.76-8.94,9.12-26.74-8.15-52.52l-19.97-27.65c-1.15-1.6-7.12-11.15,1.55-26.28c0.04-0.07,0.09-0.15,0.13-0.22
			c17.35-27.96,35.8-61.06,36.66-68.03c0.06-0.45,0.15-0.9,0.29-1.34c0.75-2.37,3.77-10.24,11.04-11.7
			c2.57-0.52,7.61-0.52,12.54,5.28c3.47,4.08,9.2,13.4,8.66,30c-0.54,16.47-7.08,35.91-19.43,57.8c-0.09,0.16-0.18,0.31-0.29,0.46
			c-0.34,1.06-0.03,4.78,5.2,10.89c8.71,10.17,37.42,47.25,50.66,64.4c4.28-11.9,5.46-36.78-30.38-74.64
			c-2.82-2.98-2.69-7.68,0.29-10.5c2.98-2.82,7.68-2.69,10.5,0.29c25.21,26.64,37.47,51.76,36.44,74.66
			c-0.81,17.98-9.67,27.59-10.68,28.63c-1.5,1.55-3.6,2.36-5.76,2.24c-2.15-0.12-4.15-1.18-5.46-2.89
			c-0.46-0.6-45.95-59.75-56.9-72.53c-13.11-15.31-8.35-25.59-6.44-28.56c23.42-41.59,17.8-61.29,13.93-68.18
			c-4.39,16.41-32.19,61.75-38.19,71.43c-3.68,6.48-2.45,9.75-2.21,10.27l19.92,27.58c0.05,0.07,0.1,0.14,0.15,0.21
			c9.28,13.82,19.11,34.93,13.24,57c-3.58,13.44-11.24,20.73-12.1,21.52C521.34,715.76,519.55,716.45,517.71,716.45z M501.32,607.92
			c0.01,0.02,0.03,0.05,0.07,0.1l0.1,0.14C501.41,608.05,501.35,607.97,501.32,607.92z M501.31,607.91c0.13,0.13,0.02-0.01,0-0.01
			C501.31,607.9,501.31,607.91,501.31,607.91z M540.1,603.23c0,0-0.01,0.01-0.01,0.01C540.1,603.24,540.1,603.23,540.1,603.23z
			 M540.11,603.21C540.11,603.22,540.11,603.22,540.11,603.21C540.11,603.22,540.11,603.22,540.11,603.21z M540.12,603.2
			C540.12,603.2,540.12,603.2,540.12,603.2C540.12,603.2,540.12,603.2,540.12,603.2z M663.47,552.58L663.47,552.58L663.47,552.58z
			 M680.67,450.5c-0.26,0-0.54,0.01-0.83,0.03c-3.72,0.22-6.33,1.26-7.98,3.17c-2.34,2.7-3.28,7.59-2.72,14.14
			c0.17,2.04,0.9,3.48,2.36,4.67c2.76,2.24,7.9,3.47,14.44,3.56c0.29-1.35,0.55-2.6,0.75-3.71c2.1-11.32,0.63-17.87-1.45-20.22
			C684.85,451.66,683.82,450.5,680.67,450.5z"/>
		<path class="st5" d="M753.4,400.32c-0.47,0-0.95-0.05-1.42-0.14c-0.46-0.09-11.45-2.29-22.97-8.76
			c-15.95-8.96-25.38-21.8-27.28-37.14c-0.17-0.96-0.53-3.31-0.4-6.11c0.32-7.06,3.41-10.82,5.95-12.73
			c8.63-6.47,20.69-0.06,24.65,2.05c27.4,14.58,28.85,53.52,28.9,55.17c0.07,2.26-0.9,4.42-2.62,5.88
			C756.85,399.71,755.15,400.32,753.4,400.32z M716.32,347.51c-0.23,0.98-0.23,2.82,0.03,4.17c0.04,0.21,0.07,0.38,0.1,0.6
			c2.01,16.97,17.43,25.92,28.1,30.14c-2.1-10.29-7.22-25.2-19.6-31.79C719.89,347.93,717.32,347.53,716.32,347.51z"/>
		<path class="st5" d="M777.72,397.43c-3.24,0-6.17-2.13-7.12-5.32c-0.12-0.4-2.9-9.95-1.84-20.97
			c1.49-15.51,9.96-26.89,23.84-32.03c5.68-2.1,19.54-5.8,25.43,5.3c6.54,12.32-4.93,33.73-19.17,43.95
			c-1.23,0.9-10.61,7.58-20.04,8.99C778.45,397.41,778.08,397.43,777.72,397.43z M804.15,351.58c-1.1,0-3.11,0.25-6.38,1.46
			c-8.5,3.15-13.14,9.41-14.17,19.15c-0.31,2.87-0.24,5.65-0.03,8.06c2.92-1.44,5.47-3.1,6.54-3.89c0.03-0.02,0.05-0.04,0.08-0.06
			c10.87-7.79,15.96-21.19,14.85-24.66C804.84,351.61,804.56,351.58,804.15,351.58z"/>
		<path class="st5" d="M539.4,499.79c-1.7,0-3.39-0.58-4.77-1.73c-2.13-1.78-52.19-44.15-52.01-83.89
			c0.16-36.48,28.99-58.32,56.77-58.36c0.03,0,0.06,0,0.08,0c15.03,0,29.42,5.83,39.5,15.99c10.43,10.52,15.86,25.21,15.68,42.48
			c-0.42,42.11-48.49,82.14-50.53,83.82C542.75,499.22,541.08,499.79,539.4,499.79z M539.48,370.66c-0.02,0-0.04,0-0.06,0
			c-9.76,0.01-20.17,4.06-27.84,10.81c-6.39,5.62-14.01,15.87-14.09,32.76c-0.06,13.2,7.81,29.76,22.76,47.9
			c7.24,8.78,14.57,16,19.18,20.28c11.53-10.71,40.1-40.07,40.38-68.28c0.13-13.4-3.69-24.12-11.38-31.87
			C561.12,374.89,550.57,370.66,539.48,370.66z"/>
		<path class="st5" d="M539.38,438.24c-16.28,0-29.53-13.25-29.53-29.53s13.25-29.53,29.53-29.53c16.28,0,29.53,13.25,29.53,29.53
			S555.67,438.24,539.38,438.24z M539.38,394.04c-8.09,0-14.68,6.58-14.68,14.68c0,8.09,6.58,14.68,14.68,14.68
			c8.09,0,14.68-6.58,14.68-14.68C554.06,400.62,547.47,394.04,539.38,394.04z"/>
		<circle class="st5" cx="767.34" cy="419.67" r="7.94"/>
	</g>
</g>
</svg>
